<svg xmlns="http://www.w3.org/2000/svg" xmlns:xlink="http://www.w3.org/1999/xlink" width="424" zoomAndPan="magnify" viewBox="0 0 318 262.499992" height="350" preserveAspectRatio="xMidYMid meet" version="1.0"><defs><g/><clipPath id="id1"><path d="M 75.160156 74.855469 L 142.453125 74.855469 L 142.453125 187 L 75.160156 187 Z M 75.160156 74.855469 " clip-rule="nonzero"/></clipPath><clipPath id="id2"><path d="M 175.546875 74.855469 L 242.710938 74.855469 L 242.710938 187 L 175.546875 187 Z M 175.546875 74.855469 " clip-rule="nonzero"/></clipPath><clipPath id="id3"><path d="M 111.25 81.871094 L 209.128906 81.871094 L 209.128906 179.75 L 111.25 179.75 Z M 111.25 81.871094 " clip-rule="nonzero"/></clipPath></defs><g clip-path="url(#id1)"><path fill="#d9b936" d="M 130.707031 186.890625 L 75.167969 131.117188 L 131.09375 74.964844 L 142.464844 86.382812 L 97.914062 131.117188 L 142.078125 175.472656 L 130.707031 186.890625 " fill-opacity="1" fill-rule="nonzero"/></g><g clip-path="url(#id2)"><path fill="#d9b936" d="M 187.289062 186.890625 L 242.828125 131.117188 L 186.90625 74.964844 L 175.53125 86.382812 L 220.085938 131.117188 L 175.917969 175.472656 L 187.289062 186.890625 " fill-opacity="1" fill-rule="nonzero"/></g><g clip-path="url(#id3)"><path fill="#222d44" d="M 160.191406 81.871094 C 133.148438 81.871094 111.25 103.769531 111.25 130.808594 C 111.25 157.847656 133.148438 179.75 160.191406 179.75 C 187.230469 179.75 209.128906 157.847656 209.128906 130.808594 C 209.128906 103.769531 187.230469 81.871094 160.191406 81.871094 Z M 160.191406 169.960938 C 138.558594 169.960938 121.039062 152.441406 121.039062 130.808594 C 121.039062 109.179688 138.558594 91.65625 160.191406 91.65625 C 181.820312 91.65625 199.339844 109.179688 199.339844 130.808594 C 199.339844 152.441406 181.820312 169.960938 160.191406 169.960938 Z M 160.191406 169.960938 " fill-opacity="1" fill-rule="nonzero"/></g><g fill="#d9b936" fill-opacity="1"><g transform="translate(135.02784, 151.312704)"><g><path d="M 1.28125 13.734375 C -0.875 13.734375 -2.914062 13.523438 -4.84375 13.109375 L -4.84375 3.921875 C -4.207031 4.035156 -3.53125 4.164062 -2.8125 4.3125 C -2.09375 4.46875 -1.316406 4.546875 -0.484375 4.546875 C 1.472656 4.546875 2.867188 3.957031 3.703125 2.78125 C 4.546875 1.601562 4.96875 -0.410156 4.96875 -3.265625 L 4.96875 -43.765625 L 16.84375 -43.765625 L 16.84375 -4.28125 C 16.84375 1.644531 15.546875 6.128906 12.953125 9.171875 C 10.359375 12.210938 6.46875 13.734375 1.28125 13.734375 Z M 1.28125 13.734375 "/></g></g></g><g fill="#d9b936" fill-opacity="1"><g transform="translate(156.603628, 151.312704)"><g><path d="M 33.34375 -13.28125 C 33.34375 -10.570312 32.65625 -8.164062 31.28125 -6.0625 C 29.90625 -3.957031 27.921875 -2.320312 25.328125 -1.15625 C 22.734375 0.0078125 19.6875 0.59375 16.1875 0.59375 C 13.28125 0.59375 10.835938 0.390625 8.859375 -0.015625 C 6.878906 -0.421875 4.820312 -1.132812 2.6875 -2.15625 L 2.6875 -12.6875 C 4.945312 -11.53125 7.289062 -10.628906 9.71875 -9.984375 C 12.15625 -9.335938 14.394531 -9.015625 16.4375 -9.015625 C 18.1875 -9.015625 19.46875 -9.316406 20.28125 -9.921875 C 21.101562 -10.523438 21.515625 -11.304688 21.515625 -12.265625 C 21.515625 -12.867188 21.347656 -13.394531 21.015625 -13.84375 C 20.691406 -14.289062 20.164062 -14.742188 19.4375 -15.203125 C 18.707031 -15.660156 16.769531 -16.597656 13.625 -18.015625 C 10.769531 -19.316406 8.628906 -20.570312 7.203125 -21.78125 C 5.773438 -23 4.71875 -24.394531 4.03125 -25.96875 C 3.34375 -27.550781 3 -29.421875 3 -31.578125 C 3 -35.609375 4.460938 -38.75 7.390625 -41 C 10.328125 -43.257812 14.359375 -44.390625 19.484375 -44.390625 C 24.015625 -44.390625 28.632812 -43.34375 33.34375 -41.25 L 29.71875 -32.109375 C 25.625 -33.984375 22.09375 -34.921875 19.125 -34.921875 C 17.59375 -34.921875 16.472656 -34.648438 15.765625 -34.109375 C 15.066406 -33.578125 14.71875 -32.910156 14.71875 -32.109375 C 14.71875 -31.253906 15.160156 -30.488281 16.046875 -29.8125 C 16.941406 -29.132812 19.351562 -27.894531 23.28125 -26.09375 C 27.050781 -24.40625 29.671875 -22.585938 31.140625 -20.640625 C 32.609375 -18.691406 33.34375 -16.238281 33.34375 -13.28125 Z M 33.34375 -13.28125 "/></g></g></g></svg>